<svg width="251" height="202" viewBox="0 0 251 202" fill="none" xmlns="http://www.w3.org/2000/svg">
<path d="M130.598 118.252L69.9985 195.951C67.2675 199.453 63.0748 201.5 58.6341 201.5H7.5C3.63401 201.5 0.5 198.366 0.5 194.5V141.21C0.5 136.638 2.0667 132.203 4.93908 128.646L103.903 6.0769C106.751 2.54996 111.041 0.5 115.574 0.5H167.645C171.511 0.5 174.645 3.63401 174.645 7.5V90.7925C174.645 94.6585 177.779 97.7925 181.645 97.7925H245.5C248.261 97.7925 250.5 100.031 250.5 102.793V199.777C250.5 200.729 249.729 201.5 248.777 201.5H189.161C168.163 201.5 151.141 184.478 151.141 163.48V125.316C151.141 118.972 145.999 113.83 139.655 113.83C136.116 113.83 132.775 115.461 130.598 118.252Z" fill="white"/>
<path d="M167.646 0.25C171.649 0.250115 174.896 3.49601 174.896 7.5V90.793C174.896 94.5207 177.918 97.543 181.646 97.543H245.5C248.4 97.543 250.75 99.8935 250.75 102.793V199.777C250.75 200.867 249.867 201.75 248.777 201.75H189.161C168.025 201.75 150.891 184.616 150.891 163.479V125.315C150.89 119.11 145.861 114.08 139.655 114.08C136.193 114.08 132.924 115.675 130.795 118.405L70.1953 196.105C67.4169 199.668 63.1513 201.75 58.6338 201.75H7.5C3.49594 201.75 0.25 198.504 0.25 194.5V141.21C0.25 136.58 1.83586 132.09 4.74414 128.488L103.709 5.91992C106.604 2.33429 110.966 0.25 115.574 0.25H167.646Z" stroke="white" stroke-opacity="0.5" stroke-width="0.5"/>
</svg>
